# Blender 3.2.2
# www.blender.org
mtllib Ramps.mtl
g Ramp 1_Cube
v 1.000000 -1.000000 -1.000000
v 1.000000 -1.000000 1.000000
v -1.000000 1.000000 -1.000000
v -1.000000 -1.000000 -1.000000
v -1.000000 1.000000 1.000000
v -1.000000 -1.000000 1.000000
vn -1.0000 -0.0000 -0.0000
vn -0.0000 -1.0000 -0.0000
vn -0.0000 -0.0000 1.0000
vn -0.0000 -0.0000 -1.0000
vn 0.7071 0.7071 -0.0000
vt 0.375000 0.500000
vt 0.375000 0.750000
vt 0.625000 0.250000
vt 0.125000 0.500000
vt 0.375000 0.250000
vt 0.625000 0.000000
vt 0.375000 0.000000
vt 0.125000 0.750000
s 0
usemtl Material
f 6/7/1 5/6/1 3/3/1 4/5/1
f 4/4/2 1/1/2 2/2/2 6/8/2
f 5/6/3 6/8/3 2/2/3
f 4/5/4 3/3/4 1/1/4
f 3/3/5 5/6/5 2/2/5 1/1/5
g Ramp 2_1_Cube.004
v 1.000000 -1.000000 -1.000000
v 1.000000 -1.000000 1.000000
v -1.000000 0.000000 1.000000
v -1.000000 0.000000 -1.000000
v -1.000000 -1.000000 -1.000000
v -1.000000 -1.000000 1.000000
v -1.000000 -1.000000 -1.000000
v -1.000000 -1.000000 1.000000
vn -0.0000 -1.0000 -0.0000
vn -0.0000 -0.0000 -1.0000
vn 0.4472 0.8944 -0.0000
vn 1.0000 -0.0000 -0.0000
vn -0.0000 -0.0000 1.0000
vt 0.375000 0.500000
vt 0.375000 0.750000
vt 0.500000 0.375000
vt 0.500000 0.375000
vt 0.250000 0.500000
vt 0.250000 0.750000
vt 0.000000 0.000000
vt 0.250000 0.750000
s 0
usemtl Material.001
f 11/13/6 7/9/6 8/10/6 12/14/6
f 13/15/7 10/12/7 7/9/7
f 10/12/8 9/11/8 8/10/8 7/9/8
f 9/11/9 14/16/9 13/15/9 10/12/9
f 8/10/10 9/11/10 14/16/10
g Ramp 2_2_Cube.001
v -1.000000 1.000000 -1.000000
v -1.000000 -1.000000 -1.000000
v -1.000000 1.000000 1.000000
v -1.000000 -1.000000 1.000000
v 1.000000 0.000000 1.000000
v 1.000000 0.000000 -1.000000
v 1.000000 -1.000000 -1.000000
v 1.000000 -1.000000 1.000000
v 1.000000 -1.000000 -1.000000
v 1.000000 -1.000000 1.000000
vn -1.0000 -0.0000 -0.0000
vn 0.4472 0.8944 -0.0000
vn -0.0000 -1.0000 -0.0000
vn -0.0000 1.0000 -0.0000
vn -0.0000 -0.0000 -1.0000
vn 1.0000 -0.0000 -0.0000
vn -0.0000 -0.0000 1.0000
vt 0.000000 0.000000
vt 0.625000 0.250000
vt 0.125000 0.500000
vt 0.375000 0.250000
vt 0.625000 0.000000
vt 0.000000 0.000000
vt 0.125000 0.750000
vt 0.375000 0.000000
vt 0.000000 0.000000
vt 0.000000 0.000000
vt 0.500000 0.375000
vt 0.250000 0.500000
vt 0.250000 0.750000
vt 0.000000 0.000000
vt 0.250000 0.500000
vt 0.250000 0.750000
s 0
usemtl Material.001
f 18/24/11 17/21/11 15/18/11 16/20/11
f 17/22/12 19/25/12 20/26/12 15/17/12
f 16/19/13 21/28/13 22/29/13 18/23/13
f 22/29/14 21/28/14 23/31/14 24/32/14
f 16/20/15 15/18/15 20/27/15 23/30/15
f 19/25/16 24/32/16 23/31/16 20/27/16
f 18/24/17 24/32/17 19/25/17 17/22/17
g Ramp 3_1_Cube.003
v 1.000000 -1.000000 -1.000000
v 1.000000 -1.000000 1.000000
v -1.000000 -1.000000 -1.000000
v -1.000000 -1.000000 1.000000
v -1.000000 -0.333333 1.000000
v -1.000000 -0.333333 -1.000000
vn -0.0000 -1.0000 -0.0000
vn -0.0000 -0.0000 -1.0000
vn 0.3162 0.9487 -0.0000
vn -0.0000 -0.0000 1.0000
vn 1.0000 -0.0000 -0.0000
vt 0.375000 0.500000
vt 0.375000 0.750000
vt 0.291667 0.500000
vt 0.000000 0.000000
vt 0.291667 0.750000
vt 0.000000 0.000000
vt 0.458333 0.500000
vt 0.000000 0.000000
vt 0.458333 0.416667
vt 0.000000 0.000000
s 0
usemtl Material.003
f 27/35/18 25/33/18 26/34/18 28/37/18
f 27/35/19 30/42/19 25/33/19
f 30/41/20 29/39/20 26/34/20 25/33/20
f 26/34/21 29/39/21 28/37/21
f 27/36/22 30/42/22 29/40/22 28/38/22
g Ramp 3_2_Cube.006
v 1.000000 -1.000000 -1.000000
v -1.000000 -1.000000 -1.000000
v -1.000000 -1.000000 1.000000
v 1.000000 -1.000000 1.000000
v -1.000000 0.333333 1.000000
v 1.000000 -0.333333 1.000000
v 1.000000 -0.333333 -1.000000
v -1.000000 0.333333 -1.000000
vn -0.0000 -1.0000 -0.0000
vn 0.3162 0.9487 -0.0000
vn -0.0000 -0.0000 -1.0000
vn -0.0000 -0.0000 1.0000
vn -1.0000 -0.0000 -0.0000
vn 1.0000 -0.0000 -0.0000
vt 0.291667 0.500000
vt 0.208333 0.500000
vt 0.000000 0.000000
vt 0.208333 0.750000
vt 0.000000 0.000000
vt 0.291667 0.750000
vt 0.541667 0.250000
vt 0.000000 0.000000
vt 0.458333 0.500000
vt 0.000000 0.000000
vt 0.541667 0.333333
vt 0.000000 0.000000
s 0
usemtl Material.003
f 32/44/23 31/43/23 34/48/23 33/46/23
f 38/53/24 35/49/24 36/51/24 37/52/24
f 32/44/25 38/53/25 37/52/25 31/43/25
f 34/48/26 36/51/26 35/49/26 33/46/26
f 38/54/27 32/45/27 33/47/27 35/50/27
f 31/43/28 37/52/28 36/51/28 34/48/28
g Ramp 3_3_Cube.005
v -1.000000 1.000000 -1.000000
v -1.000000 -1.000000 -1.000000
v -1.000000 1.000000 1.000000
v -1.000000 -1.000000 1.000000
v 1.000000 -1.000000 -1.000000
v 1.000000 -1.000000 1.000000
v 1.000000 0.333333 1.000000
v 1.000000 0.333333 -1.000000
vn -1.0000 -0.0000 -0.0000
vn -0.0000 -0.0000 -1.0000
vn -0.0000 -1.0000 -0.0000
vn 0.3162 0.9487 -0.0000
vn -0.0000 -0.0000 1.0000
vn 1.0000 -0.0000 -0.0000
vt 0.625000 0.250000
vt 0.375000 0.250000
vt 0.125000 0.500000
vt 0.625000 0.000000
vt 0.375000 0.000000
vt 0.125000 0.750000
vt 0.208333 0.500000
vt 0.208333 0.750000
vt 0.541667 0.250000
vt 0.541667 0.333333
s 0
usemtl Material.003
f 42/59/29 41/58/29 39/55/29 40/56/29
f 40/56/30 39/55/30 46/64/30 43/61/30
f 40/57/31 43/61/31 44/62/31 42/60/31
f 39/55/32 41/58/32 45/63/32 46/64/32
f 41/58/33 42/60/33 44/62/33 45/63/33
f 43/61/34 46/64/34 45/63/34 44/62/34
